<svg fill="none" viewBox="0 0 27 23" xmlns="http://www.w3.org/2000/svg"><g fill="#45cb5e"><path d="m22.3 10.4v1.6c1.7 1 2.7 2 2.7 3 0 2.3-4.6 4-9.2 4.4a.8.8 0 1 0 .1 1.5c4-.3 10.6-2 10.6-6 0-2-2.1-3.6-4-4.4zm-13.3 6.4a.8.8 0 0 0 -1.3.3l-.4 1.6c-5-1.4-7.4-4.3-2.6-6.7v-1.6c-6.2 2.6-5.3 7.6 2.3 9.6l-.3 1.4c-.1.6.5 1.1 1 .9l3.8-1.5c.5-.2.7-.9.3-1.3zm4.8-16.1a.8.8 0 0 0 -.7 0l-6.1 3.5 6.5 3.8 6.5-3.8z"/><path d="m6.2 12.6c0 .3.1.5.4.6l6.1 3.6v-7.5l-6.5-3.8v7zm14.6 0v-7.1l-6.5 3.8v7.5l6.1-3.6c.3-.1.4-.3.4-.6z"/></g></svg>