<svg xmlns="http://www.w3.org/2000/svg" fill="none" viewBox="0 0 19 19"><defs/><path fill="#45CB5E" d="M15 11.8c-.4-.4-.9-.7-1.4-.7a2 2 0 00-1.3.7L11 13l-.3-.1-.4-.2a13.8 13.8 0 01-4.4-4.8L7 7l.3-.3c.8-.9.8-2 0-2.8L6 3l-.4-.5a19 19 0 00-.7-.7C4.6 1.3 4 1 3.6 1a2 2 0 00-1.3.6L.9 3.1A3 3 0 000 4.9a7 7 0 00.5 3A18.9 18.9 0 0010 18a9.8 9.8 0 003.8 1.1 3 3 0 002.3-1l.7-.7.5-.6c.4-.4.6-.9.6-1.3 0-.5-.2-1-.6-1.4L15 11.8zm1.4 4.2l-.5.5-.7.8a2 2 0 01-1.5.6h-.2c-1.2 0-2.3-.5-3.1-1a17.8 17.8 0 01-8.9-9.4c-.3-1-.5-1.7-.4-2.5 0-.4.2-.8.6-1.2L3 2.5l.6-.3c.3 0 .5.1.6.3l.7.7.4.4 1.1 1c.4.5.4.9 0 1.3l-.3.4-1 1c-.4.3-.3.6-.3.9a14.7 14.7 0 004.9 5.4l.5.2.4.2.5.2c.3 0 .5-.2.6-.3l1.3-1.4.6-.3c.3 0 .5.2.6.3l2.2 2.2c.4.4.4.9 0 1.3zM10.3 4.5c1 .2 2 .7 2.7 1.5.8.7 1.3 1.7 1.5 2.7 0 .3.2.5.5.5.4 0 .6-.4.5-.7a6.2 6.2 0 00-5-5c-.4-.1-.6.1-.7.4 0 .3.2.6.5.6zM19 8.4A10.2 10.2 0 0010.6 0a.5.5 0 10-.2 1A9.1 9.1 0 0118 8.7c0 .2.3.4.5.4h.1c.3 0 .5-.3.5-.6z"/></svg>
