<svg fill="none" height="28" viewBox="0 0 166 28" width="166" xmlns="http://www.w3.org/2000/svg"><path d="m4.04688 1.23047h6.80272c1.7695 0 3.2871.16406 4.5527.49219 1.2657.32812 2.4141.94336 3.4454 1.8457 2.6835 2.29687 4.0253 5.78906 4.0253 10.47654 0 1.5469-.1347 2.959-.4042 4.2363-.2696 1.2774-.6856 2.4317-1.2481 3.4629-.5625 1.0196-1.2832 1.9336-2.1621 2.7422-.6914.6211-1.4473 1.1192-2.2676 1.4942s-1.7051.6386-2.6543.791c-.9375.1523-1.998.2285-3.1816.2285h-6.80276c-.94922 0-1.66406-.1406-2.14453-.4219-.48047-.2929-.79687-.6972-.94922-1.2129-.140621-.5273-.210934-1.207-.210934-2.039v-18.89651c0-1.125.251954-1.93946.755864-2.44336.5039-.50391 1.31836-.75586 2.44336-.75586zm2.02148 4.13086v17.49027h3.95504c.8672 0 1.5469-.0235 2.0391-.0704.4922-.0468 1.002-.164 1.5293-.3515s.9844-.4512 1.3711-.791c1.7461-1.4766 2.6191-4.0196 2.6191-7.6289 0-2.543-.3867-4.4473-1.1601-5.71292-.7617-1.26563-1.7051-2.06836-2.8301-2.40821-1.125-.35156-2.4844-.52734-4.07813-.52734zm33.18754 19.37107c-1.1602.9024-2.2852 1.5821-3.375 2.0391-1.0782.4453-2.2911.668-3.6387.668-1.2305 0-2.3145-.2403-3.252-.7207-.9257-.4922-1.6406-1.1543-2.1445-1.9864-.5039-.832-.7559-1.7344-.7559-2.707 0-1.3125.4161-2.4316 1.2481-3.3574s1.9746-1.5469 3.4277-1.8633c.3047-.0703 1.0606-.2285 2.2676-.4746s2.2383-.4688 3.0938-.668c.8671-.2109 1.8046-.4629 2.8125-.7559-.0586-1.2656-.3165-2.1914-.7735-2.7773-.4453-.5977-1.3769-.8965-2.7949-.8965-1.2188 0-2.1387.1699-2.7598.5098-.6093.3398-1.1367.8496-1.582 1.5293-.4336.6797-.7441 1.1308-.9316 1.3535-.1758.2109-.5625.3164-1.1602.3164-.5391 0-1.0078-.1699-1.4063-.5098-.3867-.3515-.58-.7968-.58-1.3359 0-.8437.2988-1.6641.8965-2.4609.5976-.79691 1.5293-1.45316 2.7949-1.96878 1.2656-.51563 2.8418-.77344 4.7285-.77344 2.1094 0 3.7676.25195 4.9746.75586 1.207.49218 2.0566 1.27734 2.5488 2.35546.5039 1.0781.7559 2.5078.7559 4.2891 0 1.125-.0059 2.08-.0176 2.8652 0 .7852-.0058 1.6582-.0176 2.6191 0 .9024.1465 1.8457.4395 2.8301.3047.9727.457 1.5996.457 1.8809 0 .4922-.2344.9433-.7031 1.3535-.457.3984-.9785.5977-1.5645.5977-.4921 0-.9785-.2286-1.4589-.6856-.4805-.4687-.9903-1.1426-1.5293-2.0215zm-.3164-6.9433c-.7032.2578-1.7286.5332-3.0762.8261-1.336.2813-2.2617.4922-2.7774.6328-.5156.129-1.0078.3926-1.4765.7911-.4688.3867-.7032.9316-.7032 1.6347 0 .7266.2754 1.3477.8262 1.8633.5508.5039 1.2715.7559 2.1621.7559.9493 0 1.8223-.2051 2.6192-.6153.8086-.4218 1.4004-.9609 1.7754-1.6172.4336-.7265.6504-1.9218.6504-3.5859zm8.9472-9.43949h.5274v-2.88281c0-.77344.0175-1.37696.0527-1.81055.0469-.44531.1641-.82617.3516-1.14258.1875-.32812.457-.5918.8086-.79101.3515-.21094.7441-.31641 1.1777-.31641.6094 0 1.1601.22852 1.6523.68555.3282.30468.5332.67968.6153 1.125.0937.43359.1406 1.05468.1406 1.86328v3.26953h1.7578c.6797 0 1.1953.16406 1.5469.49219.3633.3164.5449.72656.5449 1.2305 0 .6445-.2578 1.0957-.7734 1.3535-.5039.2578-1.2305.3867-2.1797.3867h-.8965v8.8242c0 .75.0234 1.3301.0703 1.7403.0586.3984.1992.7265.4219.9843.2344.2461.6094.3692 1.125.3692.2812 0 .6621-.0469 1.1426-.1407.4804-.1054.8554-.1582 1.125-.1582.3867 0 .7324.1582 1.0371.4746.3164.3047.4746.6856.4746 1.1426 0 .7735-.4219 1.3653-1.2656 1.7754-.8438.4102-2.0567.6153-3.6387.6153-1.5 0-2.6367-.252-3.4102-.7559-.7734-.5039-1.2832-1.2012-1.5293-2.0918-.2344-.8906-.3515-2.0801-.3515-3.5684v-9.2109h-.6329c-.6914 0-1.2187-.1641-1.582-.4922s-.5449-.7441-.5449-1.248c0-.50394.1875-.9141.5625-1.2305.3867-.32813.9434-.49219 1.6699-.49219zm24.627 16.38279c-1.1602.9024-2.2852 1.5821-3.375 2.0391-1.0782.4453-2.291.668-3.6387.668-1.2305 0-2.3145-.2403-3.252-.7207-.9257-.4922-1.6406-1.1543-2.1445-1.9864-.5039-.832-.7558-1.7344-.7558-2.707 0-1.3125.416-2.4316 1.248-3.3574s1.9746-1.5469 3.4277-1.8633c.3047-.0703 1.0606-.2285 2.2676-.4746s2.2383-.4688 3.0938-.668c.8672-.2109 1.8047-.4629 2.8125-.7559-.0586-1.2656-.3164-2.1914-.7735-2.7773-.4453-.5977-1.3769-.8965-2.7949-.8965-1.2187 0-2.1387.1699-2.7598.5098-.6093.3398-1.1367.8496-1.582 1.5293-.4336.6797-.7441 1.1308-.9316 1.3535-.1758.2109-.5625.3164-1.1602.3164-.5391 0-1.0078-.1699-1.4062-.5098-.3868-.3515-.5801-.7968-.5801-1.3359 0-.8437.2988-1.6641.8965-2.4609.5976-.79691 1.5293-1.45316 2.7949-1.96878 1.2656-.51563 2.8418-.77344 4.7285-.77344 2.1094 0 3.7676.25195 4.9746.75586 1.207.49218 2.0567 1.27734 2.5488 2.35546.5039 1.0781.7559 2.5078.7559 4.2891 0 1.125-.0059 2.08-.0176 2.8652 0 .7852-.0058 1.6582-.0176 2.6191 0 .9024.1465 1.8457.4395 2.8301.3047.9727.457 1.5996.457 1.8809 0 .4922-.2343.9433-.7031 1.3535-.457.3984-.9785.5977-1.5644.5977-.4922 0-.9786-.2286-1.459-.6856-.4805-.4687-.9903-1.1426-1.5293-2.0215zm-.3164-6.9433c-.7032.2578-1.7285.5332-3.0762.8261-1.3359.2813-2.2617.4922-2.7773.6328-.5157.129-1.0079.3926-1.4766.7911-.4688.3867-.7031.9316-.7031 1.6347 0 .7266.2754 1.3477.8261 1.8633.5508.5039 1.2715.7559 2.1621.7559.9493 0 1.8223-.2051 2.6192-.6153.8086-.4218 1.4004-.9609 1.7754-1.6172.4336-.7265.6504-1.9218.6504-3.5859zm13.5351-14.2559v7.3301c.9024-.93752 1.8223-1.65236 2.7598-2.14455.9375-.50391 2.0976-.75586 3.4805-.75586 1.5937 0 2.9882.38086 4.1835 1.14258 1.2071.75 2.1387 1.84573 2.795 3.28713.6679 1.4297 1.0019 3.1289 1.0019 5.0976 0 1.4532-.1875 2.7891-.5625 4.0078-.3633 1.2071-.8965 2.2559-1.5996 3.1465-.7031.8907-1.5586 1.5821-2.5664 2.0743-.9961.4804-2.0976.7207-3.3047.7207-.7383 0-1.4355-.0879-2.0918-.2637-.6445-.1758-1.1953-.4043-1.6523-.6856-.457-.2929-.8496-.5918-1.1778-.8964-.3164-.3047-.7382-.7618-1.2656-1.3711v.4746c0 .9023-.2168 1.5879-.6504 2.0566-.4336.457-.9843.6856-1.6523.6856-.6797 0-1.2246-.2286-1.6348-.6856-.3984-.4687-.5976-1.1543-.5976-2.0566v-20.95316c0-.97266.1933-1.70508.58-2.19726.3985-.50391.9493-.755864 1.6524-.755864.7383 0 1.3066.240234 1.7051.720704.3984.46875.5976 1.14258.5976 2.02148zm.2285 14.2559c0 1.9101.4336 3.3808 1.3008 4.4121.8789 1.0195 2.0274 1.5293 3.4453 1.5293 1.2071 0 2.2442-.5215 3.1114-1.5645.8789-1.0547 1.3183-2.5605 1.3183-4.5176 0-1.2656-.1816-2.3554-.5449-3.2695s-.8789-1.6172-1.5469-2.1094c-.6679-.5039-1.4472-.7558-2.3379-.7558-.914 0-1.7285.2519-2.4433.7558-.7149.4922-1.2774 1.2129-1.6875 2.1621-.4102.9375-.6153 2.0567-.6153 3.3575zm29.9711 6.9433c-1.161.9024-2.286 1.5821-3.375 2.0391-1.078.4453-2.291.668-3.639.668-1.23 0-2.314-.2403-3.252-.7207-.926-.4922-1.641-1.1543-2.145-1.9864-.503-.832-.755-1.7344-.755-2.707 0-1.3125.416-2.4316 1.248-3.3574s1.974-1.5469 3.427-1.8633c.305-.0703 1.061-.2285 2.268-.4746s2.238-.4688 3.094-.668c.867-.2109 1.804-.4629 2.812-.7559-.058-1.2656-.316-2.1914-.773-2.7773-.446-.5977-1.377-.8965-2.795-.8965-1.219 0-2.139.1699-2.76.5098-.609.3398-1.137.8496-1.582 1.5293-.434.6797-.744 1.1308-.932 1.3535-.175.2109-.562.3164-1.16.3164-.539 0-1.008-.1699-1.406-.5098-.387-.3515-.58-.7968-.58-1.3359 0-.8437.299-1.6641.896-2.4609.598-.79691 1.53-1.45316 2.795-1.96878 1.266-.51563 2.842-.77344 4.729-.77344 2.109 0 3.767.25195 4.974.75586 1.208.49218 2.057 1.27734 2.549 2.35546.504 1.0781.756 2.5078.756 4.2891 0 1.125-.006 2.08-.017 2.8652 0 .7852-.006 1.6582-.018 2.6191 0 .9024.147 1.8457.439 2.8301.305.9727.458 1.5996.458 1.8809 0 .4922-.235.9433-.704 1.3535-.457.3984-.978.5977-1.564.5977-.492 0-.979-.2286-1.459-.6856-.481-.4687-.99-1.1426-1.529-2.0215zm-.317-6.9433c-.703.2578-1.728.5332-3.076.8261-1.336.2813-2.262.4922-2.777.6328-.516.129-1.008.3926-1.477.7911-.469.3867-.703.9316-.703 1.6347 0 .7266.275 1.3477.826 1.8633.551.5039 1.272.7559 2.162.7559.95 0 1.823-.2051 2.619-.6153.809-.4218 1.401-.9609 1.776-1.6172.433-.7265.65-1.9218.65-3.5859zm14.362 2.7246v4.0078c0 .9726-.229 1.7051-.686 2.1973-.457.4804-1.037.7207-1.74.7207-.692 0-1.26-.2461-1.705-.7383-.446-.4922-.668-1.2188-.668-2.1797v-13.3594c0-2.15624.779-3.23437 2.338-3.23437.796 0 1.371.25196 1.722.75586.352.50391.545 1.24805.58 2.23241.575-.98436 1.161-1.7285 1.758-2.23241.61-.5039 1.418-.75586 2.426-.75586s1.986.25196 2.936.75586c.949.50391 1.423 1.17188 1.423 2.00391 0 .5859-.205 1.0723-.615 1.459-.398.375-.832.5625-1.301.5625-.175 0-.603-.1055-1.283-.3164-.668-.2227-1.26-.334-1.775-.334-.703 0-1.278.1875-1.723.5625-.445.3633-.791.9082-1.037 1.6348-.246.7265-.416 1.5937-.51 2.6015-.094.9961-.14 2.2149-.14 3.6563zm18.703.9492h-2.918v-14.29102h6.767c1.055 0 1.94.16992 2.655.50976.714.32813 1.254.80274 1.617 1.42383.363.60937.545 1.31833.545 2.12693 0 1.0078-.34 1.8809-1.02 2.6192-.68.7265-1.623 1.1718-2.83 1.3359.621.2344 1.119.5859 1.494 1.0547.387.457.897 1.2363 1.53 2.3379l1.687 2.8828h-3.603l-1.178-2.3027c-.551-1.0313-1.02-1.793-1.406-2.2852-.387-.5039-.774-.8438-1.161-1.0195-.386-.1758-.861-.2637-1.423-.2637h-.756zm0-12.02345v3.88475h2.338c1.054 0 1.857-.1347 2.408-.4043.551-.2812.826-.832.826-1.6523 0-.5625-.24-1.0078-.721-1.33596-.48-.32812-1.224-.49219-2.232-.49219zm3.164-8.648434c1.84 0 3.574.345704 5.203 1.037104 1.641.67969 3.082 1.64649 4.324 2.9004 1.254 1.24218 2.221 2.68359 2.9 4.32421.692 1.62887 1.038 3.36327 1.038 5.20317 0 2.4375-.604 4.6933-1.811 6.7675-1.195 2.0625-2.83 3.6973-4.904 4.9043-2.063 1.1953-4.313 1.793-6.75 1.793-2.438 0-4.694-.5977-6.768-1.793-2.062-1.207-3.697-2.8418-4.904-4.9043-1.195-2.0742-1.793-4.33-1.793-6.7675s.598-4.68754 1.793-6.75004c1.207-2.07422 2.842-3.70898 4.904-4.9043 2.074-1.20703 4.33-1.810544 6.768-1.810544zm.035 2.636714c-1.957 0-3.768.48633-5.432 1.45899-1.664.96094-2.982 2.27344-3.955 3.9375-.972 1.66408-1.459 3.47458-1.459 5.43168 0 1.957.487 3.7734 1.459 5.4492.985 1.664 2.309 2.9765 3.973 3.9375 1.664.9609 3.469 1.4414 5.414 1.4414 1.98 0 3.791-.4805 5.432-1.4414 1.652-.9727 2.959-2.291 3.919-3.9551.961-1.6641 1.442-3.4746 1.442-5.4316 0-1.9688-.481-3.7852-1.442-5.44926-.96-1.66406-2.267-2.97656-3.919-3.9375-1.653-.96094-3.463-1.44141-5.432-1.44141z" fill="#fff"/></svg>