<svg fill="none" viewBox="0 0 223 67" xmlns="http://www.w3.org/2000/svg"><path d="m25.5 9.8c-5-2.3-8.1-3.1-11.2-3.1-3 0-5.1 1-5.1 2.8 0 5.5 17.8 3.9 17.8 16.2 0 7-5.6 10.8-13.5 10.8-6.1 0-9.2-1.5-12.7-3.3v-7.7c5 3.3 8.1 4.6 12 4.6 3.3 0 5-1.3 5-3.4.1-5.9-17.8-3.6-17.8-16.4 0-6.3 5.4-10.3 13.5-10.3 3.9 0 7.4.8 12 2.8zm25.3 25.2c-3 1-5.6 1.5-8.2 1.5-8.4 0-13.8-4.9-13.8-12.3 0-7.2 5.6-12.6 13.6-12.6 2.3 0 5.6.5 7.9 1.5v5.7c-2-1-4.4-1.6-6.2-1.6-4.6 0-7.4 2.9-7.4 7 0 4.3 2.8 7 7.2 7 1.8 0 3.3-.6 6.6-1.6v5.4zm69.6-23.4c-7.4 0-12.5 5.1-12.5 12.6 0 7.4 5.4 12.3 13.8 12.3 1.8 0 6.4 0 10.7-3v-5c-3.6 2.6-5.8 3.4-8.7 3.4-4.5 0-7.6-2.6-7.9-6.7h16.9c.2-8.5-5.4-13.6-12.3-13.6zm-4.6 9.7c.3-3.3 2.3-5.1 5.1-5.1s4.9 2 5.1 5.1zm19.7 14.7h7.6v-24h-7.6zm28.3-35.5v12.6c-2-1-4-1.5-6.1-1.5-7 0-11.5 5.1-11.5 12.3s4.6 12.4 11 12.4c2.5 0 4.6-.8 6.6-2.4v2.1h7.4v-35.5zm0 29a6.4 6.4 0 0 1 -4.3 1.9c-3.6 0-5.6-2.9-5.6-7.2 0-5 2.3-7.5 5.8-7.5 1.3 0 3 .5 4.1 1.3v11.6zm23.2-18c-7.4 0-12.5 5.2-12.5 12.7 0 7.4 5.4 12.3 13.8 12.3 1.8 0 6.4 0 10.7-3v-5c-3.6 2.6-5.9 3.4-9 3.4-4.5 0-7.6-2.6-7.8-6.7h17c.3-8.5-5.3-13.6-12.2-13.6zm-4.6 9.8c.3-3.3 2.3-5.1 5.1-5.1s4.9 2 5.1 5.1zm28.1-2.3c2.3-4.9 4.8-7.4 7.7-7.4 1.5 0 2.8.5 4.8 2.3l-2 6.7c-2-1.3-3.4-1.8-4.4-1.8-2.8 0-4.6 2.5-6.1 7v10.2h-7.4v-24h7.4zm-67.1-17c.8 1.9-.5 4.4-2.8 6-2.3 1.3-4.6 1-5.4-1-.7-1.9.5-4.4 2.8-6 2.3-1.3 4.6-1 5.4 1zm-65.8 18.9c0-6.4-4.4-9.2-8.7-9.2-3 0-5.4 1.3-7.4 4v-15h-7.5v35.3h7.1v-15.2c1.8-2.5 3.4-3.6 5.1-3.6 2.3 0 3.9 1.6 3.9 5.2v8.5c2.5-1.3 5-2.1 7.4-2.4v-7.7zm18.6-9.2c-3 0-5.4 1-7.7 3.8v-3.3h-7.4v16.2c2.6.2 6 1.5 7.4 3.3v-11c2-3.1 3.4-3.9 5.1-3.9 2 0 3.9 1.3 3.9 4.9v14.7h7.4v-15.6c0-7.2-4.9-9.2-8.7-9.2zm12.7 31.3h-8.6v6.2h8.4v2.6h-8.4v6.2h8.9v3h-11.7v-20.9h11.4zm7.2 18h2.8v-20.9h-2.8zm12.2-6.4h9.5c0-5.1-2.3-7.4-5.9-7.4-3.8 0-6.4 2.8-6.4 6.9 0 3.9 2.3 7.2 6.7 7.2 2.3 0 3.8-.5 5.3-1.5v-2.8c-1.5 1-3 1.5-4.6 1.5-2.8 0-4.3-1.5-4.6-4zm3.6-5.1c1.8 0 3 1.3 3 3.3h-6.8c.5-2.3 1.8-3.3 3.8-3.3zm23.2 1.5a6.2 6.2 0 0 0 -3.8-1.3c-2.5 0-4 1.8-4 4.7 0 2.8 1.7 4.3 4.5 4.3a7 7 0 0 0 3.6-1v2.6c-1 .5-2.6.7-4.1.7-4 0-6.9-2.8-6.9-6.6 0-4.4 2.6-7.5 6.6-7.5 1.6 0 2.6.3 3.9 1v3.1zm12-3.6h4.4v2.3h-4.5v7c0 1.5 1 2 2 2s2.1-.2 3.1-1v2.6c-1 .5-2.3 1-3.3 1-2.8 0-4.3-1.8-4.3-4.4v-7.2h-2.3v-.2l5-5v3h-.2zm14.6 0v3.1c1.2-2.3 2.5-3.3 3.8-3.3 1 0 2 .5 3.3 1.5l-1.5 2.3c-.8-.8-1.8-1.3-2.6-1.3-1.8 0-3.3 1.8-3.3 4.1v7.2h-2.4v-13.7h2.8zm34.3 3.6a6.2 6.2 0 0 0 -3.8-1.3c-2.6 0-4.1 1.8-4.1 4.7 0 2.8 1.8 4.3 4.6 4.3a7 7 0 0 0 3.6-1v2.6c-1 .5-2.6.7-4.1.7-4.1 0-7-2.8-7-6.6 0-4.4 2.6-7.5 6.7-7.5 1.6 0 2.6.3 3.9 1v3.1zm-20 10h2.5v-13.7h-2.5zm2.5-18.5c.3.8-.3 1.6-1 2-.8.6-1.5.3-1.8-.2-.3-.7.3-1.5 1-2 .8-.5 1.6-.5 1.8.2zm-117.1 6.6.8-2.8h7.1c1-4.4.3-8.2-2.3-10.8-5.1-5.2-16-3.4-24.2 4.4a44.6 44.6 0 0 0 -3.4 3.8h4.4l-1 2.8h-5.4c-.5 1-1 1.8-1.3 2.9h6.4l-1 2.8h-6.1c-1 4.6-.3 8.7 2.3 11.3 5 5.2 16 3.4 24.2-4.4 1.5-1.2 2.6-2.8 3.6-4.3h-5.6l.7-2.9h6.7c.5-1 1-1.8 1.2-2.8zm-1.8-5.6c-.5 0-.8 0-.8.2 0 0 0 .3-.2.3l-2.3 9c-.5 3-4.3 6.4-9.5 6.4h-7.1l1.3-4.6h4.6c.5 0 .7-.3 1-.5l.2-.6 1.8-8c.8-3 4.1-6.6 9.2-6.6h7.2l-1 4.4z" fill="#fff"/></svg>