
<svg xmlns="http://www.w3.org/2000/svg" fill="none" viewBox="0 0 419 88">
<path fill="#fff" d="M174.8 87.4h2V0h-2v87.4zM16.2 57.2H3V33.5c0-.8 0-2.3-1.5-2.3S0 32.5 0 33.5v23.7c0 2 .2 2.2 2.5 2.2h13.7c1 0 2 0 2-1.2 0-1-1-1-2-1zm6-18.3c-1.3 0-1.3 1-1.3 2v17c0 1 0 2 1.3 2 1.2 0 1.2-1 1.2-2V41c0-.7 0-2-1.2-2zm12.5.5H32v-1.7c0-2.5.2-4.2 3.4-4.2h1.8c.7 0 1-.5 1-1 0 0 0-.5-.5-.8-.5-.2-2-.5-3.2-.5-.8 0-1.8.3-2.5.8-1 .2-1.5 1-2 1.5a9 9 0 00-.5 3.7v2h-2.2c-.5 0-1.7 0-1.7.7 0 1 1.2 1 1.7 1h2.2v16.8c0 1.2 0 2.2 1.3 2.2 1.2 0 1.2-1 1.2-2V41.2h2.7c1 0 1.7-.3 1.7-1 0-.8-1.2-.8-1.7-.8zM55.4 48s0-2.5-1.2-4.7c-.8-1.3-1.8-2.3-2.8-3-.2 0-.2-.3-.4-.3 0 0-.3 0-.3-.2-.2-.3-.5-.3-1-.5h-.2l-1-.3h-.3l-1.2-.2h-1a11 11 0 00-7.1 3c-1.7 1.7-2.5 4.5-2.5 7.7 0 3 .8 5.8 2.5 7.5.7 1 1.7 1.8 3 2.3 1.2.5 2.7.7 4.1.7 3.7 0 6-1.5 7.2-2.7a8 8 0 001.7-3.3c0-.5-.5-1-1.2-1-.5 0-1 .3-1.3.8-.7 1.7-1.7 3-3.2 3.7-1 .5-2 .8-3 .8-2.1 0-4.1-.8-5.3-2.3a10.3 10.3 0 01-1.8-6.2h14c1.3 0 2.3 0 2.3-1.8zM39 47.7c.3-2.5 2.3-6.8 7-6.8 5.8 0 6.3 5.3 6.6 6.8H39zm29.3-16.5c-1.4 0-1.4 1.3-1.4 2.3v24.2c0 1 0 2.2 1.4 2.2 1.5 0 1.5-1.2 1.5-2.2V33.5c0-1 0-2.3-1.5-2.3zm46.8 14.7c1 0 1.5-.7 1.5-1.5V27.7h-3v16.7c0 .8.5 1.5 1.5 1.5zm-27 3.5l-.6-.2h-.2c-1.5-.8-3-1-4.7-1.3-1.5-.2-3-.7-4.2-1.2a2.6 2.6 0 01-1.7-2.5c0-2.3 2.7-3.3 5.2-3.3 2.7 0 4.6 1 5.4 2.8.2 1 .5 1.2 1 1.2 1.2 0 1.2-1 1.2-1 0-.2-.2-1.5-1.2-2.5-.5-.7-1.5-1.2-2.5-1.5-1.2-.5-2.7-.7-4.2-.7-3 0-4.9.7-6.4 2.2-1.2 1.5-1.2 3-1.2 3.3 0 1.5.7 2.7 2 3.7 1.2.8 2.7 1.3 5.1 1.8l2.5.5c1.5.2 4.2 1 4.2 3.5 0 2-1.7 3.7-6 3.7-2.9 0-4.9-1.2-5.8-3.2-.3-.8-.5-1.3-1.3-1.3-.2 0-.5 0-.7.3-.3.2-.3.5-.3.7 0 1.3 1 2.8 2.3 3.8.7.5 1.2 1 2.2 1.2 1 .3 2.4.5 4 .5 3.1 0 5.6-.7 7-2.5 1.3-1.5 1.5-3 1.5-3.7-.2-1.8-1-3.3-2.7-4.3zm60-8.5c-1-1-2.7-2.2-5.7-2.2-4 0-5.6 2-6.9 3.2v-1.5c0-.5 0-1.2-.2-1.5h-.3l-.7-.2c-1.2 0-1.2 1.2-1.2 2v17c0 1 0 2 1.2 2 .2 0 .5 0 .7-.3h.3c.2-.2.2-1 .2-1.5v-7.2c0-3.3 0-5 .8-6.3a6 6 0 012.4-2.5 8 8 0 013.5-1c1.7 0 3.2.8 4.2 2 .7 1 1 2.5 1 4v11c0 .5 0 1.3.2 1.5h.2c.3.5.3.5.8.5 1.2 0 1.2-1 1.2-2V46.4c0-1.2 0-3.7-1.7-5.5z"/>
<path fill="#fff" d="M120 30v2.8c4.8 1.8 8.3 6.4 8.3 11.8 0 6.8-5.5 12.4-12.2 12.4-6.8 0-12.3-5.6-12.3-12.4 0-5.4 3.3-10 8-11.8v-3a15 15 0 00-10.7 14.5c0 8.4 6.7 15.3 15 15.3 8.2 0 15-6.9 15-15.3 0-6.6-4.5-12.5-11-14.3zm-98.4 2.6c-1 0-1.7.8-1.7 1.5 0 .8.7 1.5 1.7 1.5s1.8-.7 1.8-1.5c0-.7-.8-1.5-1.8-1.5zM227.3 27.5c-5-2.3-8-3-10.9-3-3 0-5 1-5 2.8 0 5.3 17.4 3.8 17.4 16 0 6.8-5.4 10.6-13.1 10.6-6 0-9-1.5-12.4-3.3V43c5 3.3 8 4.6 11.6 4.6 3.3 0 5-1.3 5-3.3 0-5.9-17.3-3.6-17.3-16.3 0-6 5.2-10.1 13-10.1 3.8 0 7.3.7 11.7 2.8v6.8zm24.5 24.9c-3 1-5.4 1.5-7.9 1.5-8.2 0-13.4-4.8-13.4-12.2 0-7 5.5-12.4 13.2-12.4 2.2 0 5.4.5 7.6 1.5v5.6c-2-1-4.2-1.5-6-1.5-4.4 0-7 2.8-7 6.8 0 4.3 2.6 6.9 6.8 6.9 1.8 0 3.3-.5 6.5-1.6v5.4h.2zm67.6-23.1c-7.1 0-12 5-12 12.4S312.4 54 320.6 54c1.7 0 6.2 0 10.4-3V46c-3.5 2.6-5.7 3.3-8.4 3.3-4.5 0-7.5-2.5-7.7-6.6h16.3c.3-8.3-5.2-13.4-11.9-13.4zm-4.4 9.6c.2-3.3 2.2-5 5-5 2.7 0 4.6 2 4.9 5h-10zm19 14.5h7.5V29.8H334v23.6zm27.5-35v12.4c-2-1-4-1.5-5.9-1.5-6.7 0-11.1 5-11.1 12.2 0 7 4.4 12.1 10.6 12.1a10 10 0 006.4-2.2v2h7.2v-35h-7.2zm0 28.6c-1.4 1.3-2.7 1.8-4.2 1.8-3.4 0-5.4-2.8-5.4-7 0-4.9 2.2-7.4 5.7-7.4 1.2 0 3 .5 4 1.2V47zm22.6-17.7c-7.2 0-12.2 5-12.2 12.4S377.1 54 385.3 54c1.8 0 6.2 0 10.4-3V46c-3.4 2.6-5.7 3.3-8.6 3.3-4.5 0-7.5-2.5-7.7-6.6H396c.2-8.3-5.2-13.4-12-13.4zm-4.5 9.6c.3-3.3 2.3-5 5-5s4.7 2 5 5h-10zm27.3-2.3c2.2-4.8 4.7-7.3 7.4-7.3 1.5 0 2.7.5 4.7 2.3l-2 6.6c-2-1.3-3.2-1.8-4.2-1.8-2.7 0-4.4 2.5-6 6.8v10.2h-7.1V29.8h7.2v6.8zM341.7 20c.8 1.8-.5 4.3-2.7 5.8-2.2 1.3-4.5 1-5.2-1-.7-1.8.5-4.3 2.7-5.8 2.3-1.3 4.5-1 5.2 1zm-63.9 18.5c0-6.3-4.2-9.1-8.4-9.1-3 0-5.2 1.3-7.2 4v-15h-7.1v35h6.9V38.5c1.7-2.5 3.2-3.5 5-3.5 2.2 0 3.7 1.5 3.7 5v8.4c2.4-1.3 5-2 7.1-2.3v-7.6zm18.1-9.1c-3 0-5.2 1-7.4 3.8v-3.3h-7.2v16a12 12 0 017.2 3.3V38c2-3 3.2-3.7 5-3.7 2 0 3.7 1.2 3.7 4.8v14.4h7.1V38.4c0-7-4.7-9.1-8.4-9.1zm12.4 31h-8.4v6h8.2V69h-8.2v6.3h8.6V78h-11.3V57.4h11.1v2.8zm7 17.7h2.7V57.4h-2.8V78zm11.8-6.3h9.2c0-5.1-2.2-7.4-5.7-7.4-3.7 0-6.2 2.8-6.2 6.8 0 3.8 2.2 7.1 6.4 7.1 2.3 0 3.7-.5 5.2-1.5v-2.5c-1.5 1-3 1.5-4.4 1.5-2.7 0-4.2-1.5-4.5-4zm3.5-5.1c1.7 0 3 1.2 3 3.3h-6.7c.5-2.3 1.7-3.3 3.7-3.3zM353 68a6 6 0 00-3.7-1.3c-2.5 0-4 1.8-4 4.6s1.8 4.3 4.5 4.3c1 0 2.2-.2 3.5-1v2.5c-1 .5-2.5.8-4 .8-4 0-6.7-2.8-6.7-6.6 0-4.3 2.5-7.4 6.5-7.4 1.4 0 2.4.3 3.7 1v3.1h.2zm11.7-3.6h4.2v2.3h-4.2v6.9c0 1.5 1 2 2 2s2-.2 3-1v2.5a8 8 0 01-3.3 1c-2.7 0-4.2-1.7-4.2-4.3v-7H360v-.3l5-4.8v2.7h-.3zm14 0v3c1.3-2.2 2.6-3.2 3.8-3.2 1 0 2 .5 3.2 1.5l-1.5 2.3c-.7-.8-1.7-1.3-2.4-1.3-1.8 0-3.3 1.8-3.3 4V78h-2.4V64.5h2.7zm33.5 3.6a6 6 0 00-3.7-1.3c-2.5 0-4 1.8-4 4.6s1.8 4.3 4.5 4.3c1 0 2.2-.2 3.5-1v2.5c-1 .5-2.5.8-4 .8-4 0-6.7-2.8-6.7-6.6 0-4.3 2.5-7.4 6.5-7.4 1.4 0 2.4.3 3.7 1v3.1h.2zM392.7 78h2.5V64.5h-2.5V78zm2.5-18.3c.3.8-.2 1.6-1 2-.7.6-1.5.3-1.7-.2-.2-.8.2-1.5 1-2 .7-.5 1.5-.5 1.7.2zm-113.6 6.6l.7-2.8h7c1-4.3.2-8-2.3-10.6-5-5-15.6-3.3-23.5 4.3a44 44 0 00-3.2 3.8h4.2l-1 2.8h-5.2c-.5 1-1 1.8-1.3 2.8h6.2l-1 2.8h-6c-.9 4.5-.2 8.6 2.3 11.1 5 5.1 15.6 3.3 23.5-4.3 1.5-1.3 2.5-2.8 3.5-4.3h-5.4l.7-2.8h6.4c.5-1 1-1.8 1.3-2.8h-7zm-1.8-5.6c-.5 0-.7 0-.7.3 0 0 0 .3-.3.3l-2.2 8.8c-.5 3-4.2 6.4-9.2 6.4h-6.9l1.2-4.6h4.5c.5 0 .7-.2 1-.5 0-.3.2-.3.2-.5l1.8-7.9c.7-3 4-6.6 8.9-6.6h7l-1 4.3h-4.3z"/>
</svg>
