<svg xmlns="http://www.w3.org/2000/svg" fill-rule="evenodd" stroke-linejoin="round" stroke-miterlimit="2" clip-rule="evenodd" viewBox="0 0 64 64"><defs/><path fill="none" d="M0 0h64v64H0z"/><clipPath id="a"><path d="M0 0h64v64H0z"/></clipPath><g clip-path="url(#a)"><path fill="#009e4d" fill-rule="nonzero" d="M48 31.1l2-6h13c2-8 1-15-4-20-10-9-30-6-44 8l-7 7h9l-2 6H5l-2 5h11l-2 5H1c-2 8-1 16 4 21 9 9 29 6 44-8l7-8H46l1-5h12l3-5H48"/><path fill="#fff" d="M46 20.1c-1.7 0-2 2-2 2l-5 16c-1 6-8 12-17 12H9l2-9h8c2.8 0 3-2 3-2l3-14c1-6 8-12 17-12h13l-2 7h-7z"/></g></svg>